<?xml version="1.0" standalone="no"?>
<!DOCTYPE svg PUBLIC "-//W3C//DTD SVG 20010904//EN"
 "http://www.w3.org/TR/2001/REC-SVG-20010904/DTD/svg10.dtd">
<svg version="1.0" xmlns="http://www.w3.org/2000/svg"
 width="603.000000pt" height="603.000000pt" viewBox="0 0 603.000000 603.000000"
 preserveAspectRatio="xMidYMid meet">

<g transform="translate(0.000000,603.000000) scale(0.100000,-0.100000)"
fill="#000000" stroke="none">
<path d="M2905 5773 c-869 -36 -1664 -473 -2160 -1188 -258 -372 -414 -783
-471 -1244 -18 -151 -21 -460 -4 -616 137 -1282 1138 -2297 2420 -2451 163
-19 487 -19 650 0 867 104 1621 601 2065 1359 185 317 306 685 351 1062 18
155 20 456 4 610 -128 1207 -1031 2191 -2219 2419 -196 38 -448 57 -636 49z
m74 -1459 c8 -3 18 0 21 7 6 8 13 8 30 -1 18 -9 24 -9 30 0 6 9 12 9 30 0 12
-6 32 -9 44 -6 12 3 33 -1 48 -8 14 -8 38 -11 52 -9 15 3 26 1 26 -5 0 -8 223
-11 761 -12 656 0 765 -2 797 -15 116 -49 187 -174 162 -288 -11 -51 -542
-1532 -565 -1577 -32 -60 -126 -129 -178 -130 -29 0 -66 -30 -62 -50 2 -12 -4
-20 -18 -24 -18 -5 -20 -8 -7 -16 12 -8 12 -10 -5 -10 -16 0 -17 -2 -5 -10 12
-8 12 -10 -3 -16 -9 -3 -17 -12 -17 -20 0 -8 -5 -14 -11 -14 -5 0 -8 -4 -4 -9
3 -5 -4 -12 -15 -16 -11 -4 -18 -10 -15 -15 3 -5 -1 -15 -9 -23 -8 -8 -12 -18
-8 -22 4 -5 -2 -5 -13 -1 -11 4 -16 4 -13 0 4 -3 -11 -24 -34 -46 -34 -32 -39
-42 -27 -50 12 -8 11 -9 -1 -5 -9 3 -24 -1 -33 -8 -17 -12 -16 -17 16 -78 93
-175 58 -382 -86 -513 -220 -199 -581 -109 -678 169 -9 26 -19 37 -34 37 -16
0 -17 2 -5 10 12 8 11 10 -7 10 -14 0 -23 -6 -23 -15 0 -8 -2 -15 -4 -15 -2 0
-13 -3 -23 -6 -15 -5 -15 -4 -3 5 25 18 3 23 -29 7 -33 -17 -55 -22 -31 -6 12
8 11 10 -7 10 -18 0 -29 -13 -52 -65 -147 -324 -601 -335 -758 -17 -34 68 -38
85 -41 169 -2 51 1 107 7 123 8 25 7 30 -5 30 -11 0 -14 6 -9 23 4 15 3 18 -3
9 -7 -11 -10 -11 -15 2 -4 9 -12 16 -19 15 -10 0 -10 -2 0 -6 6 -2 12 -9 12
-15 0 -6 -6 -6 -15 2 -8 7 -15 18 -15 25 0 9 -8 11 -22 7 -14 -3 -19 -1 -14 6
3 6 -3 17 -15 25 -15 11 -17 16 -7 21 7 3 1 5 -14 3 -19 -3 -25 0 -21 10 3 8
-3 13 -18 14 l-24 1 25 8 c25 8 25 8 2 9 -13 1 -20 6 -17 11 3 6 0 10 -8 10
-7 0 -19 11 -25 25 -6 13 -24 28 -39 31 -24 7 -25 8 -8 14 18 7 17 9 -13 26
-18 11 -30 25 -27 32 3 7 1 10 -5 7 -5 -3 -14 3 -19 14 -8 14 -8 21 2 25 6 4
2 4 -11 2 -12 -2 -20 -1 -17 3 2 5 -4 17 -15 29 -14 14 -16 22 -7 25 7 3 1 6
-12 6 -19 1 -23 5 -19 26 3 13 1 22 -3 19 -5 -3 -9 2 -9 10 0 8 -9 20 -20 26
-10 6 -17 17 -14 24 3 8 1 17 -5 21 -6 3 -11 15 -11 26 0 10 -5 19 -11 19 -5
0 -8 4 -5 9 3 5 -1 12 -9 15 -8 3 -14 9 -13 13 2 10 -13 64 -21 78 -3 6 -6 22
-7 37 -1 15 -7 35 -15 45 -8 9 -9 14 -3 10 6 -3 11 0 11 7 0 8 -6 12 -14 9 -7
-3 -13 0 -13 6 0 6 5 11 11 11 6 0 3 7 -5 16 -19 19 -21 28 -3 18 9 -6 9 -4
-1 8 -10 12 -10 18 -1 23 8 6 6 11 -6 18 -18 9 -18 10 0 23 18 14 18 14 0 14
-14 0 -16 3 -8 11 9 9 8 17 -3 34 -12 18 -12 25 -3 31 9 5 7 10 -7 15 -17 7
-17 8 -1 8 9 1 17 6 17 12 0 5 -4 8 -8 5 -4 -2 -7 10 -7 27 1 18 -4 35 -9 39
-7 5 -6 8 2 8 7 0 10 5 7 11 -4 6 -9 31 -10 57 -4 48 -40 305 -51 355 l-6 27
-394 0 -394 0 0 100 0 100 381 0 382 0 -7 31 c-3 17 -6 40 -6 50 0 18 -12 19
-255 19 l-255 0 0 100 0 100 238 0 239 0 -8 48 c-4 26 -8 76 -8 113 -1 80 32
154 89 199 78 61 63 60 605 60 389 0 495 3 495 13 0 9 2 9 8 0 6 -9 17 -10 38
-4 16 5 46 14 66 21 20 6 47 8 60 5 13 -3 37 -1 53 4 28 9 111 6 144 -5z
m-1089 -2274 c8 -5 11 -10 5 -10 -5 0 -17 5 -25 10 -8 5 -10 10 -5 10 6 0 17
-5 25 -10z m50 -60 c0 -5 -4 -10 -10 -10 -5 0 -10 5 -10 10 0 6 5 10 10 10 6
0 10 -4 10 -10z"/>
<path d="M2868 4313 c6 -2 18 -2 25 0 6 3 1 5 -13 5 -14 0 -19 -2 -12 -5z"/>
<path d="M2750 4300 c8 -5 20 -10 25 -10 6 0 3 5 -5 10 -8 5 -19 10 -25 10 -5
0 -3 -5 5 -10z"/>
<path d="M1650 4087 c-51 -26 -51 -40 -7 -329 22 -148 45 -268 50 -268 5 0 7
7 4 14 -4 11 -1 13 11 9 14 -6 15 -4 4 9 -9 11 -10 18 -2 23 5 3 10 1 10 -5 0
-6 5 -8 11 -4 8 4 6 10 -6 17 -16 8 -15 12 10 33 16 13 25 27 22 30 -11 11 13
44 31 44 14 0 14 2 3 9 -11 7 -9 11 8 20 12 7 19 16 15 22 -3 5 10 25 30 42
29 27 33 36 23 46 -10 11 -8 12 10 6 18 -5 22 -3 17 9 -5 12 1 16 22 17 l29 1
-25 8 c-18 6 -20 8 -7 9 10 1 16 5 12 10 -3 5 -1 12 5 16 5 3 10 0 11 -7 0 -7
5 -3 11 10 6 12 15 22 20 22 5 0 6 5 2 12 -4 7 -3 8 4 4 7 -4 22 4 36 18 13
14 30 26 37 26 11 0 11 2 -1 10 -13 8 -12 10 3 10 28 0 76 40 69 58 -4 11 -1
14 12 9 9 -4 15 -3 12 2 -3 4 6 13 19 19 59 27 23 32 -232 32 -188 0 -265 -4
-283 -13z m455 -69 c-9 -6 -19 -7 -22 -4 -4 3 -1 6 6 6 7 0 9 4 6 10 -4 6 1 7
11 3 15 -6 15 -7 -1 -15z"/>
<path d="M3754 4091 c4 -5 0 -12 -6 -15 -7 -3 3 -3 22 -1 19 2 29 2 22 -1 -20
-9 31 -56 52 -48 18 7 19 -15 1 -29 -5 -5 1 -5 14 -2 16 5 21 4 17 -4 -4 -6 0
-11 8 -11 9 0 16 -5 16 -11 0 -6 6 -9 13 -6 9 3 13 -3 13 -17 -1 -15 4 -20 17
-18 19 3 23 -14 5 -22 -9 -4 -8 -5 2 -5 30 2 41 -1 35 -11 -3 -5 3 -10 14 -10
11 0 23 -4 26 -10 3 -5 0 -8 -7 -7 -7 2 -10 2 -5 0 4 -3 5 -9 2 -14 -4 -5 0
-6 8 -3 8 3 18 1 22 -5 3 -6 26 -11 51 -11 l44 0 0 -70 c0 -49 4 -70 13 -70 8
0 7 -4 -3 -10 -13 -8 -12 -10 3 -10 10 0 16 -4 13 -9 -3 -5 1 -12 10 -15 9 -3
14 -13 11 -20 -3 -8 2 -17 11 -21 14 -5 14 -7 2 -15 -13 -8 -12 -10 3 -10 10
0 15 -4 12 -10 -3 -5 -1 -10 5 -10 6 0 8 -4 5 -10 -3 -5 -1 -10 5 -10 6 0 8
-4 5 -10 -3 -5 -1 -10 5 -10 8 0 8 -6 0 -20 -9 -16 -8 -19 6 -13 14 5 15 3 5
-15 -8 -15 -8 -22 -1 -22 5 0 10 6 10 13 0 8 3 7 10 -3 5 -9 5 -19 -2 -27 -10
-12 -4 -17 15 -14 5 1 6 -3 3 -8 -4 -5 0 -12 6 -14 10 -4 9 -6 -1 -6 -11 -1
-11 -4 0 -17 17 -21 20 -44 6 -44 -7 0 -6 -4 3 -9 8 -6 18 -7 23 -4 5 3 4 -4
-2 -16 -7 -12 -8 -21 -4 -20 20 3 27 -2 13 -11 -11 -8 -12 -12 -3 -18 7 -4 11
-19 8 -32 -2 -13 -1 -28 4 -34 14 -17 14 -28 -1 -38 -9 -7 -6 -8 11 -4 18 4
21 2 12 -7 -17 -17 -13 -27 7 -20 16 7 16 6 0 -11 -20 -19 -24 -31 -8 -21 6 3
10 2 10 -4 0 -5 -8 -15 -17 -20 -10 -6 -13 -11 -7 -11 5 0 19 -7 30 -16 10 -8
14 -13 7 -10 -6 4 -14 2 -18 -4 -3 -5 -2 -10 3 -10 5 0 9 -7 9 -15 0 -8 -5
-15 -10 -15 -5 0 -5 -6 2 -13 8 -10 7 -17 -2 -27 -10 -10 -9 -12 6 -7 23 8 22
2 -5 -24 -13 -12 -18 -19 -12 -16 16 9 25 -18 11 -32 -8 -8 -8 -11 0 -11 6 0
14 8 18 18 32 82 415 1144 415 1151 0 27 -26 61 -53 71 -38 13 -1001 14 -993
1z m601 -891 c3 -5 1 -10 -4 -10 -6 0 -11 5 -11 10 0 6 2 10 4 10 3 0 8 -4 11
-10z"/>
<path d="M1828 3723 c7 -3 16 -2 19 1 4 3 -2 6 -13 5 -11 0 -14 -3 -6 -6z"/>
<path d="M2960 3150 l0 -570 535 0 535 0 0 570 0 570 -535 0 -535 0 0 -570z"/>
<path d="M2010 2900 l0 -450 420 0 420 0 0 450 0 450 -420 0 -420 0 0 -450z"/>
</g>
</svg>
